<?xml version='1.0' encoding='utf-8'?>
<svg xmlns="http://www.w3.org/2000/svg" viewBox="0 0 3600 3600" width="3600" height="3600"><rect x="0" y="0" width="3600" height="3600" fill="#0b0b0b" /><g stroke="#2b2b2b" fill="none" stroke-width="1"><line x1="0" y1="3195.87" x2="3600" y2="3195.87" opacity="0.35" stroke-width="1" /><line x1="0" y1="2794.32" x2="3600" y2="2794.32" opacity="0.35" stroke-width="1" /><line x1="0" y1="2554.56" x2="3600" y2="2554.56" opacity="0.35" stroke-width="1" /><line x1="0" y1="2379.08" x2="3600" y2="2379.08" opacity="0.35" stroke-width="1" /><line x1="0" y1="2237.12" x2="3600" y2="2237.12" opacity="0.35" stroke-width="1" /><line x1="0" y1="2114.73" x2="3600" y2="2114.73" opacity="0.35" stroke-width="1" /><line x1="0" y1="2004.19" x2="3600" y2="2004.19" opacity="0.35" stroke-width="1" /><line x1="0" y1="1900.51" x2="3600" y2="1900.51" opacity="0.35" stroke-width="1" /><line x1="0" y1="1800.00" x2="3600" y2="1800.00" opacity="0.6" stroke-width="1.5" /><line x1="0" y1="1699.49" x2="3600" y2="1699.49" opacity="0.35" stroke-width="1" /><line x1="0" y1="1595.81" x2="3600" y2="1595.81" opacity="0.35" stroke-width="1" /><line x1="0" y1="1485.27" x2="3600" y2="1485.27" opacity="0.35" stroke-width="1" /><line x1="0" y1="1362.88" x2="3600" y2="1362.88" opacity="0.35" stroke-width="1" /><line x1="0" y1="1220.92" x2="3600" y2="1220.92" opacity="0.35" stroke-width="1" /><line x1="0" y1="1045.44" x2="3600" y2="1045.44" opacity="0.35" stroke-width="1" /><line x1="0" y1="805.68" x2="3600" y2="805.68" opacity="0.35" stroke-width="1" /><line x1="0" y1="404.13" x2="3600" y2="404.13" opacity="0.35" stroke-width="1" /><line x1="0.00" y1="0" x2="0.00" y2="3600" opacity="0.35" stroke-width="1" /><line x1="300.00" y1="0" x2="300.00" y2="3600" opacity="0.35" stroke-width="1" /><line x1="600.00" y1="0" x2="600.00" y2="3600" opacity="0.35" stroke-width="1" /><line x1="900.00" y1="0" x2="900.00" y2="3600" opacity="0.35" stroke-width="1" /><line x1="1200.00" y1="0" x2="1200.00" y2="3600" opacity="0.35" stroke-width="1" /><line x1="1500.00" y1="0" x2="1500.00" y2="3600" opacity="0.35" stroke-width="1" /><line x1="1800.00" y1="0" x2="1800.00" y2="3600" opacity="0.6" stroke-width="1.5" /><line x1="2100.00" y1="0" x2="2100.00" y2="3600" opacity="0.35" stroke-width="1" /><line x1="2400.00" y1="0" x2="2400.00" y2="3600" opacity="0.35" stroke-width="1" /><line x1="2700.00" y1="0" x2="2700.00" y2="3600" opacity="0.35" stroke-width="1" /><line x1="3000.00" y1="0" x2="3000.00" y2="3600" opacity="0.35" stroke-width="1" /><line x1="3300.00" y1="0" x2="3300.00" y2="3600" opacity="0.35" stroke-width="1" /><line x1="3600.00" y1="0" x2="3600.00" y2="3600" opacity="0.35" stroke-width="1" /></g><rect x="0" y="0" width="3600" height="3600" fill="none" stroke="#1a1a1a" stroke-width="2" /></svg>